<?xml version="1.0" encoding="UTF-8"?>
<svg id="Layer_1" xmlns="http://www.w3.org/2000/svg" version="1.1" viewBox="0 0 720 280">
  <!-- Generator: Adobe Illustrator 29.5.0, SVG Export Plug-In . SVG Version: 2.1.0 Build 137)  -->
  <defs>
    <style>
      .st0 {
        fill: #939598;
        font-size: 72px;
        letter-spacing: .3em;
      }

      .st0, .st1, .st2 {
        isolation: isolate;
      }

      .st0, .st2 {
        font-family: CenturyGothic, 'Century Gothic';
      }

      .st3, .st2 {
        fill: #231f20;
      }

      .st2 {
        font-size: 178.3px;
      }
    </style>
  </defs>
  <g class="st1">
    <text class="st2" transform="translate(21.52 198.9)"><tspan x="0" y="0">Diprizio</tspan></text>
  </g>
  <g class="st1">
    <text class="st0" transform="translate(31.16 256.77)"><tspan x="0" y="0">FALEGNAMI</tspan></text>
  </g>
  <g>
    <path class="st3" d="M648.62,122.33c2.19,0,3.96-.65,5.31-1.96s2.03-2.96,2.03-4.95-.69-3.57-2.07-4.86c-1.38-1.29-3.15-1.93-5.3-1.93s-3.96.66-5.36,1.97c-1.4,1.31-2.1,2.93-2.1,4.85s.69,3.62,2.07,4.93,3.18,1.96,5.42,1.96Z"/>
    <path class="st3" d="M643.2,89.14c1.38,1.3,3.18,1.96,5.42,1.96s3.96-.65,5.31-1.96,2.03-2.96,2.03-4.95-.69-3.57-2.07-4.86c-1.38-1.29-3.15-1.93-5.3-1.93s-3.96.66-5.36,1.97c-1.4,1.31-2.1,2.93-2.1,4.85s.69,3.62,2.07,4.93Z"/>
    <path class="st3" d="M658.07,74.55c2.48,2.29,3.72,5.08,3.72,8.35,0,1.51-.29,2.92-.86,4.25-.57,1.32-1.42,2.55-2.56,3.67h7.61v-17.87h-10.08c.77.45,1.5.98,2.17,1.6Z"/>
    <path class="st3" d="M656.89,193.07c-.88.84-1.31,1.89-1.31,3.15s.44,2.21,1.31,3.03,1.96,1.22,3.25,1.22,2.43-.43,3.32-1.28c.89-.86,1.34-1.85,1.34-2.99,0-1.2-.44-2.23-1.33-3.1s-1.99-1.29-3.31-1.29-2.4.42-3.27,1.26Z"/>
    <path class="st3" d="M635.15,245.44l2.65-5.46,26.11,12.77v-14.26h2.07v-6.62c-.07.04-.13.09-.21.14-1.64.95-3.31,1.42-5,1.42-2.02,0-4.19-.57-6.52-1.72-2.33-1.15-5.08-3.25-8.25-6.3l-4.02-3.81v12.11h-5.98v-23.54h3.1l10.72,10.51c2.57,2.54,4.64,4.23,6.2,5.07,1.56.84,2.98,1.26,4.24,1.26s2.39-.43,3.25-1.3c.86-.87,1.28-1.99,1.28-3.36s-.52-2.54-1.55-3.47c-1.03-.92-2.43-1.42-4.21-1.48v-6.31c2.76.13,5.07.81,6.94,2.05v-8.04c-1.71,1.14-3.61,1.71-5.68,1.71-1.05,0-2.1-.16-3.15-.47-1.05-.32-2.68-1.04-4.88-2.18l-17.12-8.73,2.73-5.5,11.57,5.96c0-2.89,1.03-5.34,3.09-7.36s4.62-3.03,7.69-3.03c2.16,0,4.07.56,5.75,1.65v-13.53h-29.98v-6.42h27.91v-7l2.07,1.27v-21.1h-29.98v-6.31h29.98v-36.92h-29.98v-6.31h2.66c-1.17-1.23-2.01-2.47-2.53-3.7-.52-1.24-.77-2.58-.77-4.03,0-3.25,1.26-6.05,3.78-8.42.71-.67,1.48-1.24,2.29-1.72h-6.45v186h27.85l-27.68-13.51ZM639.14,105.9c2.52-2.37,5.65-3.55,9.39-3.55s7.06,1.15,9.54,3.44c2.48,2.29,3.72,5.08,3.72,8.35,0,1.51-.29,2.92-.86,4.25-.57,1.32-1.42,2.55-2.56,3.67h2.77v6.31h-25.14v-6.31h2.66c-1.17-1.23-2.01-2.47-2.53-3.7-.52-1.24-.77-2.58-.77-4.03,0-3.25,1.26-6.05,3.78-8.42Z"/>
  </g>
</svg>